<svg width="23" height="23" viewBox="0 0 23 23" fill="none" xmlns="http://www.w3.org/2000/svg">
<path d="M16.3582 2.09729C16.6208 1.83464 16.9326 1.6263 17.2758 1.48416C17.6189 1.34202 17.9867 1.26886 18.3582 1.26886C18.7296 1.26886 19.0974 1.34202 19.4405 1.48416C19.7837 1.6263 20.0955 1.83464 20.3582 2.09729C20.6208 2.35993 20.8291 2.67173 20.9713 3.01489C21.1134 3.35806 21.1866 3.72585 21.1866 4.09729C21.1866 4.46872 21.1134 4.83652 20.9713 5.17968C20.8291 5.52284 20.6208 5.83464 20.3582 6.09729L6.85815 19.5973L1.35815 21.0973L2.85815 15.5973L16.3582 2.09729Z" stroke="white" stroke-width="2" stroke-linecap="round" stroke-linejoin="round"/>
</svg>
