<svg width="27" height="19" viewBox="0 0 27 19" fill="none" xmlns="http://www.w3.org/2000/svg">
<path d="M4.30698 15.9743C6.81354 15.9743 8.81201 15.1382 10.3024 13.4659C10.3024 13.3486 10.2177 13.2459 10.0484 13.1579L9.08299 11.4856C8.64265 12.2778 7.99061 12.9158 7.12686 13.3999C6.26311 13.884 5.32315 14.126 4.30698 14.126H1.81735C1.54637 14.126 1.30079 14.2214 1.08062 14.4121C0.860452 14.6028 0.750366 14.8155 0.750366 15.0502C0.750366 15.2849 0.860452 15.4976 1.08062 15.6882C1.30079 15.8789 1.54637 15.9743 1.81735 15.9743H4.30698ZM23.2078 0.308037C22.6659 -0.102689 22.1578 -0.102689 21.6836 0.308037C21.1755 0.7481 21.1755 1.18816 21.6836 1.62823L23.0554 2.8604H18.8383C16.3656 2.8604 14.384 3.69652 12.8936 5.36876C12.8936 5.45678 12.9614 5.55946 13.0969 5.67681L14.0622 7.34905C14.5026 6.55693 15.1546 5.91884 16.0184 5.43477C16.8821 4.9507 17.8221 4.70867 18.8383 4.70867H23.0554L21.6836 5.94085C21.1755 6.38091 21.1755 6.82097 21.6836 7.26103C21.8868 7.43706 22.1408 7.52507 22.4457 7.52507C22.6828 7.52507 22.9368 7.43706 23.2078 7.26103L26.4596 4.44463C26.8999 4.00457 26.8999 3.5645 26.4596 3.12444L23.2078 0.308037ZM23.2078 11.5737C22.6659 11.1629 22.1578 11.1629 21.6836 11.5737C21.1755 12.0137 21.1755 12.4538 21.6836 12.8938L23.0554 14.126H18.8383C17.8221 14.126 16.8737 13.884 15.993 13.3999C15.1123 12.9158 14.4348 12.2778 13.9606 11.4856L12.792 9.41734L11.5726 7.34905L11.0645 6.51293C10.4548 5.3981 9.54027 4.51064 8.32086 3.85055C7.10145 3.19045 5.76349 2.8604 4.30698 2.8604H1.81735C1.54637 2.8604 1.30079 2.95575 1.08062 3.14644C0.860452 3.33714 0.750366 3.54984 0.750366 3.78454C0.750366 4.01924 0.860452 4.23193 1.08062 4.42263C1.30079 4.61332 1.54637 4.70867 1.81735 4.70867H4.30698C6.47481 4.70867 8.10069 5.58879 9.18461 7.34905L10.404 9.41734L11.5726 11.4856L12.1315 12.3218C12.809 13.4366 13.7489 14.324 14.9514 14.9841C16.1539 15.6442 17.4834 15.9743 18.9399 15.9743H23.2078L21.7852 17.2065C21.2771 17.6465 21.2771 18.0866 21.7852 18.5267C21.9884 18.7027 22.2424 18.7907 22.5473 18.7907C22.8183 18.7907 23.0723 18.7027 23.3094 18.5267L26.5612 15.7102C27.0015 15.2702 27.0015 14.8301 26.5612 14.3901L23.2078 11.5737Z" fill="white"/>
</svg>
