<svg width="26" height="130" viewBox="0 0 26 130" fill="none" xmlns="http://www.w3.org/2000/svg">
<path d="M23.1 4.2C21.9 4.2 21 3.3 21 2.1C21 0.9 21.9 0 23.1 0C24.3 0 25.2 0.9 25.2 2.1C25.2 3.2 24.2 4.2 23.1 4.2Z" fill="white"/>
<path d="M23.1 22.1C21.9 22.1 21 21.2 21 20C21 18.8 21.9 17.9 23.1 17.9C24.3 17.9 25.2 18.8 25.2 20C25.2 21.2 24.2 22.1 23.1 22.1Z" fill="white"/>
<path d="M23.1 40.1C21.9 40.1 21 39.2 21 38C21 36.8 21.9 35.9 23.1 35.9C24.3 35.9 25.2 36.8 25.2 38C25.2 39.2 24.2 40.1 23.1 40.1Z" fill="white"/>
<path d="M23.1 58C21.9 58 21 57.1 21 56C21 54.9 21.9 53.9 23.1 53.9C24.3 53.9 25.2 54.8 25.2 56C25.2 57.2 24.2 58 23.1 58Z" fill="white"/>
<path d="M23.1 75.5C21.9 75.5 21 74.6 21 73.4C21 72.2 21.9 71.3 23.1 71.3C24.3 71.3 25.2 72.2 25.2 73.4C25.2 74.6 24.2 75.5 23.1 75.5Z" fill="white"/>
<path d="M23.1 93.5C21.9 93.5 21 92.6 21 91.4C21 90.2 21.9 89.3 23.1 89.3C24.3 89.3 25.2 90.2 25.2 91.4C25.2 92.6 24.2 93.5 23.1 93.5Z" fill="white"/>
<path d="M23.1 111.4C21.9 111.4 21 110.5 21 109.3C21 108.1 21.9 107.2 23.1 107.2C24.3 107.2 25.2 108.1 25.2 109.3C25.2 110.5 24.2 111.4 23.1 111.4Z" fill="white"/>
<path d="M23.1 129.4C21.9 129.4 21 128.5 21 127.3C21 126.1 21.9 125.2 23.1 125.2C24.3 125.2 25.2 126.1 25.2 127.3C25.2 128.4 24.2 129.4 23.1 129.4Z" fill="white"/>
<path d="M2.1 4.2C0.9 4.2 0 3.2 0 2.1C0 0.9 0.9 0 2.1 0C3.3 0 4.2 0.9 4.2 2.1C4.2 3.2 3.2 4.2 2.1 4.2Z" fill="white"/>
<path d="M2.1 22.1C0.9 22.1 0 21.2 0 20C0 18.8 0.9 18 2.1 18C3.3 18 4.2 18.9 4.2 20.1C4.2 21.3 3.2 22.1 2.1 22.1Z" fill="white"/>
<path d="M2.1 40.1C0.9 40.1 0 39.2 0 38C0 36.8 0.9 35.9 2.1 35.9C3.3 35.9 4.2 36.8 4.2 38C4.2 39.2 3.2 40.1 2.1 40.1Z" fill="white"/>
<path d="M2.1 58C0.9 58 0 57.1 0 56C0 54.9 0.9 53.9 2.1 53.9C3.3 53.9 4.2 54.8 4.2 56C4.2 57.2 3.2 58 2.1 58Z" fill="white"/>
<path d="M2.1 75.5C0.9 75.5 0 74.6 0 73.4C0 72.2 0.9 71.3 2.1 71.3C3.3 71.3 4.2 72.2 4.2 73.4C4.2 74.6 3.2 75.5 2.1 75.5Z" fill="white"/>
<path d="M2.1 93.5C0.9 93.5 0 92.6 0 91.4C0 90.2 0.9 89.3 2.1 89.3C3.3 89.3 4.2 90.2 4.2 91.4C4.2 92.6 3.2 93.5 2.1 93.5Z" fill="white"/>
<path d="M2.1 111.4C0.9 111.4 0 110.5 0 109.3C0 108.1 0.9 107.2 2.1 107.2C3.3 107.2 4.2 108.1 4.2 109.3C4.2 110.5 3.2 111.4 2.1 111.4Z" fill="white"/>
<path d="M2.1 129.4C0.9 129.4 0 128.5 0 127.3C0 126.1 0.9 125.2 2.1 125.2C3.3 125.2 4.2 126.1 4.2 127.3C4.2 128.4 3.2 129.4 2.1 129.4Z" fill="white"/>
</svg>
