<svg width="23" height="22" viewBox="0 0 23 22" fill="none" xmlns="http://www.w3.org/2000/svg">
<path d="M20.6775 0.717145C20.6775 0.526946 20.5982 0.344538 20.457 0.210047C20.3159 0.075556 20.1244 0 19.9247 0C19.7251 0 19.5336 0.075556 19.3924 0.210047C19.2513 0.344538 19.172 0.526946 19.172 0.717145V1.91239H17.9173C17.7177 1.91239 17.5262 1.98794 17.385 2.12243C17.2439 2.25692 17.1646 2.43933 17.1646 2.62953C17.1646 2.81973 17.2439 3.00214 17.385 3.13663C17.5262 3.27112 17.7177 3.34668 17.9173 3.34668H19.172V4.54192C19.172 4.73212 19.2513 4.91453 19.3924 5.04902C19.5336 5.18351 19.7251 5.25906 19.9247 5.25906C20.1244 5.25906 20.3159 5.18351 20.457 5.04902C20.5982 4.91453 20.6775 4.73212 20.6775 4.54192V3.34668H21.9322C22.1318 3.34668 22.3233 3.27112 22.4645 3.13663C22.6056 3.00214 22.6849 2.81973 22.6849 2.62953C22.6849 2.43933 22.6056 2.25692 22.4645 2.12243C22.3233 1.98794 22.1318 1.91239 21.9322 1.91239H20.6775V0.717145Z" fill="white"/>
<path d="M5.87286 2.39047C6.07251 2.39047 6.26398 2.46603 6.40516 2.60052C6.54633 2.73501 6.62564 2.91742 6.62564 3.10762V4.30286H7.88027C8.07992 4.30286 8.2714 4.37842 8.41257 4.51291C8.55374 4.6474 8.63305 4.82981 8.63305 5.02C8.63305 5.2102 8.55374 5.39261 8.41257 5.5271C8.2714 5.66159 8.07992 5.73715 7.88027 5.73715H6.62564V6.93239C6.62564 7.12259 6.54633 7.305 6.40516 7.43949C6.26398 7.57398 6.07251 7.64954 5.87286 7.64954C5.67321 7.64954 5.48174 7.57398 5.34057 7.43949C5.19939 7.305 5.12008 7.12259 5.12008 6.93239V5.73715H3.86545C3.6658 5.73715 3.47433 5.66159 3.33315 5.5271C3.19198 5.39261 3.11267 5.2102 3.11267 5.02C3.11267 4.82981 3.19198 4.6474 3.33315 4.51291C3.47433 4.37842 3.6658 4.30286 3.86545 4.30286H5.12008V3.10762C5.12008 2.91742 5.19939 2.73501 5.34057 2.60052C5.48174 2.46603 5.67321 2.39047 5.87286 2.39047Z" fill="white"/>
<path d="M17.9173 13.3867C18.1169 13.3867 18.3084 13.4623 18.4496 13.5968C18.5908 13.7313 18.6701 13.9137 18.6701 14.1039V15.2991H19.9247C20.1244 15.2991 20.3158 15.3747 20.457 15.5092C20.5982 15.6436 20.6775 15.8261 20.6775 16.0163C20.6775 16.2064 20.5982 16.3889 20.457 16.5233C20.3158 16.6578 20.1244 16.7334 19.9247 16.7334H18.6701V17.9286C18.6701 18.1188 18.5908 18.3012 18.4496 18.4357C18.3084 18.5702 18.1169 18.6458 17.9173 18.6458C17.7176 18.6458 17.5262 18.5702 17.385 18.4357C17.2438 18.3012 17.1645 18.1188 17.1645 17.9286V16.7334H15.9099C15.7102 16.7334 15.5188 16.6578 15.3776 16.5233C15.2364 16.3889 15.1571 16.2064 15.1571 16.0163C15.1571 15.8261 15.2364 15.6436 15.3776 15.5092C15.5188 15.3747 15.7102 15.2991 15.9099 15.2991H17.1645V14.1039C17.1645 13.9137 17.2438 13.7313 17.385 13.5968C17.5262 13.4623 17.7176 13.3867 17.9173 13.3867Z" fill="white"/>
<path d="M17.8012 6.19419C17.584 5.82332 17.2796 5.50542 16.9118 5.26543C16.544 5.02545 16.1229 4.86989 15.6814 4.81098C15.24 4.75206 14.7902 4.79138 14.3673 4.92586C13.9445 5.06033 13.5601 5.28631 13.2443 5.58605L12.3932 6.39308L16.4753 10.281L17.3184 9.47776C17.763 9.05508 18.0507 8.50573 18.1379 7.91312C18.225 7.3205 18.1068 6.71698 17.8012 6.19419Z" fill="white"/>
<path d="M15.4092 11.2945L11.3271 7.4057L0.911673 17.2956C0.368759 17.8114 0.0631717 18.5116 0.0621364 19.242C0.0611012 19.9725 0.364703 20.6735 0.906152 21.1907C1.4476 21.7079 2.18255 21.999 2.94931 22C3.71607 22.001 4.45184 21.7117 4.99475 21.1959L15.4092 11.2945Z" fill="white"/>
</svg>
